<svg id="Capa_2" data-name="Capa 2" xmlns="http://www.w3.org/2000/svg" viewBox="0 0 450.68 155.02"><defs><style>.cls-1,.cls-2{fill:#fff;}.cls-2{font-size:36px;font-family:Klik-Bold, Klik;font-weight:700;}.cls-3{letter-spacing:-0.02em;}</style></defs><path class="cls-1" d="M488.57,494c6,0,12-.18,18,0,8,.3,13.34-3.11,16.57-10.35,1-2.14,1.54-5.24,4.86-4.87s3.62,3.49,4.24,6c2.1,8.58,4.08,17.18,6.22,25.75.47,1.85.67,4.54,3,4.67,2.69.14,2.59-2.76,3-4.51,4.84-19.73,9.54-39.5,14.29-59.26.5-2.11,1-4.21,1.59-6.3s1.46-3.93,3.92-3.86,3.31,1.94,3.8,4c2,8.26,3.89,16.54,5.88,24.79q9.45,39.1,18.94,78.2c.42,1.72.44,4.3,2.57,4.39,2.5.1,2.67-2.65,3.11-4.48q7.54-31.34,14.95-62.71c.23-1,.42-2,.73-2.91.58-1.81,1.42-3.5,3.64-3.56,2.47-.07,3.51,1.7,4,3.74,2.08,8.41,3.95,16.87,6.21,25.23.71,2.63,0,7.15,3.83,7.1,3.23,0,3.07-4.28,3.79-6.87,2.71-9.68,5.42-12.28,15.43-13.59,12.6-1.65,25.29-.41,37.94-.73,7.11-.17,9.26-2.52,8.75-9.4-.22-3-1.47-4.63-4.38-5.13-11.72-2-18.14-9.78-21.78-20.37-4.46-13-5-26.4-3.93-39.95a6.71,6.71,0,0,1,3.81-5.5c5.44-3.11,11.63-3.95,17.53-5.63a3.9,3.9,0,0,1,5.27,3.81c.12,3.12-1.81,4.92-5,4.89-1.15,0-2.29-.44-3.45-.54-8.35-.74-11.88,2.46-12,10.76s.24,16.63,2.17,24.82a39.55,39.55,0,0,0,4.6,11.55c3.8,6.25,9.07,10.11,16.78,9.76,2.5-.11,5,0,7.5,0,11.27,0,17.17-4,21.25-14.58,4.52-11.75,4.9-24.07,4.4-36.44-.14-3.56-5.77-6.23-11.3-5.7-1.48.14-3,.7-4.43.6-2.83-.21-4.82-1.76-4.62-4.8s2.34-4.85,5.12-4.13c5.92,1.55,12.17,2.22,17.53,5.53C735.34,415,737,417,737.13,420c.45,13.19.25,26.32-4.11,39-3.73,10.87-10.48,18.45-22.25,20.57a6,6,0,0,0-4.93,4.31,108,108,0,0,1-4.69,11c-2.73,5.53-6.49,7.21-12.59,6.78-12.8-.9-25.6-.14-38.38.53-3.53.19-5.86,2.24-6.87,5.62-.67,2.23-1.12,4.53-1.73,6.77-1.48,5.48-5.44,8.9-10.11,8.76s-8-3.36-9.36-9c-1-3.88-1.8-7.79-2.75-11.67-.19-.77-.65-2.06-1.05-2.09-1.38-.08-1.2,1.34-1.41,2.21-3,12.47-5.86,25-8.8,37.45-1,4.21-1.87,8.48-3.21,12.58-1.44,4.37-4.27,7.86-9.26,7.84s-7.89-3.49-9.09-8c-2.41-9-4.51-18.1-6.67-27.18q-7.15-29.88-14.27-59.78c-.25-1.07-.16-2.88-1.33-2.91-1.37,0-1.11,1.8-1.37,2.85q-5.24,21.6-10.38,43.24c-.54,2.27-1,4.56-1.68,6.79-1.5,5-5.47,8.09-9.73,7.86s-8-3.83-9.16-8.68q-2.19-9.23-4.33-18.47c-.59-2.53-1-4.23-3.79-1.26-5.33,5.74-12.77,6.44-19.88,6.56-12.3.23-24.63-.38-36.95-.67-2.36-.06-4.53-.88-4.51-3.6s2.24-3.53,4.58-3.55c7.17-.06,14.33,0,21.5,0Z" transform="translate(-286.61 -407.8)"/><text class="cls-2" transform="translate(0 145.92)">MiAgendaDeCi<tspan class="cls-3" x="242.02" y="0">t</tspan><tspan x="254.7" y="0">as</tspan></text></svg>